<?xml version="1.0" encoding="UTF-8"?><svg xmlns="http://www.w3.org/2000/svg" xmlns:xlink="http://www.w3.org/1999/xlink" viewBox="0 0 2000 2000"><defs><style>.cls-1{fill:url(#linear-gradient-75);}.cls-2{fill:url(#linear-gradient-31);}.cls-2,.cls-3,.cls-4,.cls-5,.cls-6,.cls-7,.cls-8,.cls-9,.cls-10,.cls-11,.cls-12,.cls-13,.cls-14,.cls-15,.cls-16,.cls-17,.cls-18,.cls-19,.cls-20,.cls-21,.cls-22,.cls-23,.cls-24,.cls-25,.cls-26,.cls-27,.cls-28,.cls-29,.cls-30,.cls-31,.cls-32,.cls-33,.cls-34,.cls-35,.cls-36,.cls-37,.cls-38,.cls-39{mix-blend-mode:multiply;}.cls-3{fill:url(#linear-gradient-29);}.cls-40{fill:url(#linear-gradient-2);}.cls-4{fill:url(#linear-gradient-65);}.cls-41{fill:url(#linear-gradient-51);}.cls-5{fill:url(#linear-gradient-60);}.cls-6{fill:url(#linear-gradient-13);}.cls-42{fill:url(#linear-gradient-93);}.cls-43{fill:url(#linear-gradient-109);}.cls-44{fill:url(#linear-gradient-43);}.cls-7{fill:url(#linear-gradient-95);}.cls-45{fill:url(#linear-gradient-58);}.cls-8{fill:url(#linear-gradient-16);}.cls-46{fill:url(#linear-gradient-69);}.cls-9{fill:url(#linear-gradient-64);}.cls-47{fill:url(#linear-gradient-18);}.cls-48{fill:url(#linear-gradient-56);}.cls-49{fill:url(#linear-gradient-40);}.cls-10{fill:url(#linear-gradient-77);}.cls-11{fill:url(#linear-gradient-80);}.cls-50{fill:url(#linear-gradient-52);}.cls-12{fill:url(#linear-gradient-17);}.cls-51{fill:url(#linear-gradient-36);}.cls-52{fill:url(#linear-gradient-20);}.cls-53{fill:url(#linear-gradient-6);}.cls-54{fill:url(#linear-gradient-53);}.cls-55{isolation:isolate;}.cls-56{fill:url(#linear-gradient-91);}.cls-13{fill:url(#linear-gradient-96);}.cls-57{fill:url(#linear-gradient-108);}.cls-58{fill:url(#linear-gradient-83);}.cls-58,.cls-59,.cls-60{stroke-miterlimit:10;}.cls-58,.cls-59,.cls-60,.cls-61{stroke:#000;}.cls-14{fill:url(#linear-gradient-81);}.cls-62{fill:url(#linear-gradient-104);}.cls-15{fill:url(#linear-gradient-113);}.cls-63{fill:url(#linear-gradient-35);}.cls-16{fill:url(#linear-gradient-28);}.cls-64{fill:url(#linear-gradient-97);}.cls-65{fill:url(#linear-gradient-11);}.cls-66{fill:url(#linear-gradient-50);}.cls-67{fill:url(#linear-gradient-106);}.cls-68{fill:url(#linear-gradient-111);}.cls-69{fill:url(#linear-gradient-67);}.cls-70{fill:url(#linear-gradient-39);}.cls-71{fill:url(#linear-gradient-110);}.cls-72{fill:url(#linear-gradient-10);}.cls-73{fill:url(#linear-gradient-59);}.cls-17{fill:url(#linear-gradient-78);}.cls-74{fill:url(#radial-gradient);}.cls-18{fill:url(#linear-gradient-33);}.cls-19{fill:url(#linear-gradient-32);}.cls-75{fill:url(#linear-gradient-37);}.cls-59{fill:url(#linear-gradient-84);}.cls-20{fill:url(#linear-gradient-86);}.cls-76{fill:#b2b0a1;}.cls-77{fill:url(#linear-gradient-112);}.cls-21{fill:url(#linear-gradient-30);}.cls-22{fill:url(#linear-gradient-87);}.cls-78{fill:url(#linear-gradient-114);}.cls-79{fill:url(#linear-gradient-68);}.cls-80{fill:url(#linear-gradient-103);}.cls-81{fill:url(#linear-gradient-107);}.cls-82{fill:url(#linear-gradient-41);}.cls-83{fill:url(#linear-gradient-98);}.cls-23{fill:url(#linear-gradient-85);}.cls-84{fill:url(#linear-gradient-21);}.cls-85{fill:url(#linear-gradient-72);}.cls-60{fill:url(#linear-gradient-82);}.cls-24{fill:url(#linear-gradient-15);}.cls-86{fill:url(#linear-gradient-25);}.cls-87{fill:url(#linear-gradient-89);}.cls-88{fill:url(#linear-gradient-5);}.cls-89{fill:url(#linear-gradient-102);}.cls-90{fill:url(#linear-gradient-54);}.cls-91{fill:url(#linear-gradient-55);}.cls-92{fill:url(#radial-gradient-2);}.cls-93{fill:url(#linear-gradient-34);}.cls-94{fill:url(#linear-gradient-70);}.cls-25{fill:url(#linear-gradient-49);}.cls-26{fill:url(#linear-gradient-48);}.cls-27{fill:url(#linear-gradient-63);}.cls-95{fill:url(#linear-gradient-88);}.cls-96{fill:#999;}.cls-97{fill:url(#linear-gradient-7);}.cls-28{fill:url(#linear-gradient-12);}.cls-98{fill:url(#linear-gradient-66);}.cls-29{fill:url(#linear-gradient-44);}.cls-30{fill:url(#linear-gradient-79);}.cls-31{fill:url(#linear-gradient-46);}.cls-99{fill:url(#linear-gradient-24);}.cls-100{fill:url(#linear-gradient-73);}.cls-32{fill:url(#linear-gradient-47);}.cls-101{fill:url(#linear-gradient-100);}.cls-102{fill:url(#linear-gradient-105);}.cls-103{fill:url(#linear-gradient-9);}.cls-33{fill:url(#linear-gradient-92);}.cls-104{fill:url(#linear-gradient-22);}.cls-105{fill:url(#linear-gradient-74);}.cls-106{fill:url(#linear-gradient-42);}.cls-107{fill:url(#linear-gradient-99);}.cls-108{fill:url(#linear-gradient-3);}.cls-34{fill:url(#linear-gradient-61);}.cls-35{fill:url(#linear-gradient-45);}.cls-36{fill:url(#linear-gradient-62);}.cls-109{fill:url(#linear-gradient-27);}.cls-37{fill:url(#linear-gradient-90);}.cls-110{fill:url(#linear-gradient-38);}.cls-111{fill:url(#linear-gradient-94);}.cls-61{fill:url(#linear-gradient);}.cls-38{fill:url(#linear-gradient-14);}.cls-112{fill:url(#linear-gradient-23);}.cls-113{fill:url(#linear-gradient-19);}.cls-114{fill:url(#linear-gradient-71);}.cls-115{fill:url(#linear-gradient-4);}.cls-116{fill:url(#linear-gradient-8);}.cls-117{fill:url(#linear-gradient-57);}.cls-39{fill:url(#linear-gradient-76);}.cls-118{fill:url(#linear-gradient-26);}.cls-119{fill:url(#linear-gradient-101);}</style><linearGradient id="linear-gradient" x1="1013.03" y1="637.41" x2="1013.03" y2="345.37" gradientUnits="userSpaceOnUse"><stop offset="0" stop-color="#fff"/><stop offset="1" stop-color="#b8b8b8"/></linearGradient><linearGradient id="linear-gradient-2" x1="422.94" y1="1042.52" x2="525.77" y2="1042.52" gradientUnits="userSpaceOnUse"><stop offset="0" stop-color="#8f8f8f"/><stop offset="0" stop-color="#969696"/><stop offset=".05" stop-color="#c3c3c3"/><stop offset=".09" stop-color="#e3e3e3"/><stop offset=".12" stop-color="#f7f7f7"/><stop offset=".15" stop-color="#fff"/><stop offset=".66" stop-color="#fbfbfb"/><stop offset=".86" stop-color="#f8f8f8"/><stop offset="1" stop-color="#8f8f8f"/></linearGradient><linearGradient id="linear-gradient-3" x1="435.02" y1="1042.52" x2="513.87" y2="1042.52" gradientUnits="userSpaceOnUse"><stop offset="0" stop-color="#8f8f8f"/><stop offset="0" stop-color="#b0b0b0"/><stop offset=".02" stop-color="#ccc"/><stop offset=".02" stop-color="#ddd"/><stop offset=".03" stop-color="#e3e3e3"/><stop offset=".12" stop-color="#e9e9e9"/><stop offset=".15" stop-color="#8f8f8f"/><stop offset=".85" stop-color="#8f8f8f"/><stop offset=".86" stop-color="#9d9d9d"/><stop offset=".87" stop-color="#c3c3c3"/><stop offset=".87" stop-color="#d8d8d8"/><stop offset=".97" stop-color="#d9d9d9"/><stop offset=".98" stop-color="#dbdbda"/><stop offset="1" stop-color="#8f8f8f"/></linearGradient><linearGradient id="linear-gradient-4" x1="447.11" y1="1042.52" x2="501.79" y2="1042.52" gradientUnits="userSpaceOnUse"><stop offset="0" stop-color="#9e9e9e"/><stop offset="0" stop-color="#9f9f9f"/><stop offset=".04" stop-color="#bbb"/><stop offset=".07" stop-color="#cfcfcf"/><stop offset=".11" stop-color="#dbdbdb"/><stop offset=".15" stop-color="#dfdfdf"/><stop offset=".79" stop-color="#dfdfdf"/><stop offset=".86" stop-color="#dfdfdf"/><stop offset=".89" stop-color="#d9d9d9"/><stop offset=".93" stop-color="#c9c9c9"/><stop offset=".98" stop-color="#aeaeae"/><stop offset="1" stop-color="#9e9e9e"/></linearGradient><linearGradient id="linear-gradient-5" x1="465.83" y1="1042.52" x2="483.07" y2="1042.52" gradientUnits="userSpaceOnUse"><stop offset="0" stop-color="#8f8f8f"/><stop offset=".03" stop-color="#959595"/><stop offset=".06" stop-color="#a9a9a9"/><stop offset=".11" stop-color="#c8c8c8"/><stop offset=".14" stop-color="#e3e3e3"/><stop offset=".79" stop-color="#e9e9e9"/><stop offset=".84" stop-color="#d7d7d7"/><stop offset=".94" stop-color="#ababab"/><stop offset="1" stop-color="#8f8f8f"/></linearGradient><linearGradient id="linear-gradient-6" x1="392.53" y1="687.57" x2="556.36" y2="687.57" gradientUnits="userSpaceOnUse"><stop offset="0" stop-color="#8f8f8f"/><stop offset=".1" stop-color="#b4b4b4"/><stop offset=".2" stop-color="#d6d6d6"/><stop offset=".26" stop-color="#e3e3e3"/><stop offset=".7" stop-color="#e9e9e9"/><stop offset=".77" stop-color="#e5e5e5"/><stop offset=".83" stop-color="#d9d9d9"/><stop offset=".89" stop-color="#c6c6c6"/><stop offset=".95" stop-color="#ababab"/><stop offset="1" stop-color="#8f8f8f"/></linearGradient><linearGradient id="linear-gradient-7" x1="402.56" y1="712.04" x2="546.34" y2="712.04" xlink:href="#linear-gradient-6"/><linearGradient id="linear-gradient-8" x1="414.59" y1="736.51" x2="534.3" y2="736.51" xlink:href="#linear-gradient-6"/><linearGradient id="linear-gradient-9" x1="403.98" y1="1381.39" x2="544.92" y2="1381.39" xlink:href="#linear-gradient-6"/><linearGradient id="linear-gradient-10" x1="417.73" y1="1362.51" x2="531.17" y2="1362.51" xlink:href="#linear-gradient-6"/><linearGradient id="linear-gradient-11" x1="389.1" y1="1400.26" x2="559.8" y2="1400.26" xlink:href="#linear-gradient-6"/><linearGradient id="linear-gradient-12" x1="977.37" y1="523.89" x2="977.37" y2="548.36" gradientTransform="translate(1451.81 1223.7) rotate(-180)" gradientUnits="userSpaceOnUse"><stop offset=".88" stop-color="#fff"/><stop offset=".93" stop-color="#d3d3d3"/><stop offset="1" stop-color="#8f8f8f"/></linearGradient><linearGradient id="linear-gradient-13" x1="977.37" y1="570.48" x2="977.37" y2="594.94" gradientTransform="translate(1451.81 1294.75) rotate(-180)" xlink:href="#linear-gradient-12"/><linearGradient id="linear-gradient-14" x1="977.37" y1="617.05" x2="977.37" y2="641.52" gradientTransform="translate(1451.81 1365.8) rotate(-180)" xlink:href="#linear-gradient-12"/><linearGradient id="linear-gradient-15" x1="474.45" y1="1371.95" x2="474.45" y2="1390.82" gradientTransform="matrix(1, 0, 0, 1, 0, 0)" xlink:href="#linear-gradient-12"/><linearGradient id="linear-gradient-16" x1="474.45" y1="1353.07" x2="474.45" y2="1371.95" gradientTransform="matrix(1, 0, 0, 1, 0, 0)" xlink:href="#linear-gradient-12"/><linearGradient id="linear-gradient-17" x1="474.45" y1="1390.82" x2="474.45" y2="1409.7" gradientTransform="matrix(1, 0, 0, 1, 0, 0)" xlink:href="#linear-gradient-12"/><linearGradient id="linear-gradient-18" x1="1497.69" x2="1600.52" xlink:href="#linear-gradient-2"/><linearGradient id="linear-gradient-19" x1="1509.77" x2="1588.62" xlink:href="#linear-gradient-3"/><linearGradient id="linear-gradient-20" x1="1521.86" x2="1576.54" xlink:href="#linear-gradient-4"/><linearGradient id="linear-gradient-21" x1="1540.58" x2="1557.82" xlink:href="#linear-gradient-5"/><linearGradient id="linear-gradient-22" x1="1467.28" x2="1631.11" xlink:href="#linear-gradient-6"/><linearGradient id="linear-gradient-23" x1="1477.31" y1="712.04" x2="1621.09" y2="712.04" xlink:href="#linear-gradient-6"/><linearGradient id="linear-gradient-24" x1="1489.34" y1="736.51" x2="1609.05" y2="736.51" xlink:href="#linear-gradient-6"/><linearGradient id="linear-gradient-25" x1="1478.73" y1="1381.39" x2="1619.67" y2="1381.39" xlink:href="#linear-gradient-6"/><linearGradient id="linear-gradient-26" x1="1492.48" y1="1362.51" x2="1605.92" y2="1362.51" xlink:href="#linear-gradient-6"/><linearGradient id="linear-gradient-27" x1="1463.85" y1="1400.26" x2="1634.55" y2="1400.26" xlink:href="#linear-gradient-6"/><linearGradient id="linear-gradient-28" x1="-97.39" y1="523.89" x2="-97.39" y2="548.36" xlink:href="#linear-gradient-12"/><linearGradient id="linear-gradient-29" x1="-97.38" y1="570.48" x2="-97.38" y2="594.94" gradientTransform="translate(1451.81 1294.75) rotate(-180)" xlink:href="#linear-gradient-12"/><linearGradient id="linear-gradient-30" x1="-97.38" y1="617.05" x2="-97.38" y2="641.52" gradientTransform="translate(1451.81 1365.8) rotate(-180)" xlink:href="#linear-gradient-12"/><linearGradient id="linear-gradient-31" x1="1549.2" y1="1371.95" x2="1549.2" y2="1390.82" gradientTransform="matrix(1, 0, 0, 1, 0, 0)" xlink:href="#linear-gradient-12"/><linearGradient id="linear-gradient-32" x1="1549.2" y1="1353.07" x2="1549.2" y2="1371.95" gradientTransform="matrix(1, 0, 0, 1, 0, 0)" xlink:href="#linear-gradient-12"/><linearGradient id="linear-gradient-33" x1="1549.2" y1="1390.82" x2="1549.2" y2="1409.7" gradientTransform="matrix(1, 0, 0, 1, 0, 0)" xlink:href="#linear-gradient-12"/><linearGradient id="linear-gradient-34" x1="691.63" x2="794.46" xlink:href="#linear-gradient-2"/><linearGradient id="linear-gradient-35" x1="703.71" x2="782.56" xlink:href="#linear-gradient-3"/><linearGradient id="linear-gradient-36" x1="715.79" x2="770.48" xlink:href="#linear-gradient-4"/><linearGradient id="linear-gradient-37" x1="734.52" x2="751.75" xlink:href="#linear-gradient-5"/><linearGradient id="linear-gradient-38" x1="661.22" x2="825.05" xlink:href="#linear-gradient-6"/><linearGradient id="linear-gradient-39" x1="671.25" y1="712.04" x2="815.02" y2="712.04" xlink:href="#linear-gradient-6"/><linearGradient id="linear-gradient-40" x1="683.28" y1="736.51" x2="802.99" y2="736.51" xlink:href="#linear-gradient-6"/><linearGradient id="linear-gradient-41" x1="672.67" y1="1381.39" x2="813.61" y2="1381.39" xlink:href="#linear-gradient-6"/><linearGradient id="linear-gradient-42" x1="686.42" y1="1362.51" x2="799.85" y2="1362.51" xlink:href="#linear-gradient-6"/><linearGradient id="linear-gradient-43" x1="657.78" y1="1400.26" x2="828.49" y2="1400.26" xlink:href="#linear-gradient-6"/><linearGradient id="linear-gradient-44" x1="708.68" x2="708.68" xlink:href="#linear-gradient-12"/><linearGradient id="linear-gradient-45" x1="708.68" y1="570.48" x2="708.68" y2="594.94" gradientTransform="translate(1451.81 1294.75) rotate(-180)" xlink:href="#linear-gradient-12"/><linearGradient id="linear-gradient-46" x1="708.68" y1="617.05" x2="708.68" y2="641.52" gradientTransform="translate(1451.81 1365.8) rotate(-180)" xlink:href="#linear-gradient-12"/><linearGradient id="linear-gradient-47" x1="743.14" y1="1371.95" x2="743.14" y2="1390.82" gradientTransform="matrix(1, 0, 0, 1, 0, 0)" xlink:href="#linear-gradient-12"/><linearGradient id="linear-gradient-48" x1="743.14" y1="1353.07" x2="743.14" y2="1371.95" gradientTransform="matrix(1, 0, 0, 1, 0, 0)" xlink:href="#linear-gradient-12"/><linearGradient id="linear-gradient-49" x1="743.14" y1="1390.82" x2="743.14" y2="1409.7" gradientTransform="matrix(1, 0, 0, 1, 0, 0)" xlink:href="#linear-gradient-12"/><linearGradient id="linear-gradient-50" x1="960.32" x2="1063.15" xlink:href="#linear-gradient-2"/><linearGradient id="linear-gradient-51" x1="972.4" x2="1051.25" xlink:href="#linear-gradient-3"/><linearGradient id="linear-gradient-52" x1="984.48" x2="1039.17" xlink:href="#linear-gradient-4"/><linearGradient id="linear-gradient-53" x1="1003.21" x2="1020.44" xlink:href="#linear-gradient-5"/><linearGradient id="linear-gradient-54" x1="929.91" x2="1093.74" xlink:href="#linear-gradient-6"/><linearGradient id="linear-gradient-55" x1="939.93" y1="712.04" x2="1083.71" y2="712.04" xlink:href="#linear-gradient-6"/><linearGradient id="linear-gradient-56" x1="951.97" y1="736.51" x2="1071.68" y2="736.51" xlink:href="#linear-gradient-6"/><linearGradient id="linear-gradient-57" x1="941.35" y1="1381.39" x2="1082.29" y2="1381.39" xlink:href="#linear-gradient-6"/><linearGradient id="linear-gradient-58" x1="955.1" y1="1362.51" x2="1068.54" y2="1362.51" xlink:href="#linear-gradient-6"/><linearGradient id="linear-gradient-59" x1="926.47" y1="1400.26" x2="1097.18" y2="1400.26" xlink:href="#linear-gradient-6"/><linearGradient id="linear-gradient-60" x1="439.99" x2="439.99" xlink:href="#linear-gradient-12"/><linearGradient id="linear-gradient-61" x1="439.99" y1="570.48" x2="439.99" y2="594.94" gradientTransform="translate(1451.81 1294.75) rotate(-180)" xlink:href="#linear-gradient-12"/><linearGradient id="linear-gradient-62" x1="439.99" y1="617.05" x2="439.99" y2="641.52" gradientTransform="translate(1451.81 1365.8) rotate(-180)" xlink:href="#linear-gradient-12"/><linearGradient id="linear-gradient-63" x1="1011.82" y1="1371.95" x2="1011.82" y2="1390.82" gradientTransform="matrix(1, 0, 0, 1, 0, 0)" xlink:href="#linear-gradient-12"/><linearGradient id="linear-gradient-64" x1="1011.82" y1="1353.07" x2="1011.82" y2="1371.95" gradientTransform="matrix(1, 0, 0, 1, 0, 0)" xlink:href="#linear-gradient-12"/><linearGradient id="linear-gradient-65" x1="1011.82" y1="1390.82" x2="1011.82" y2="1409.7" gradientTransform="matrix(1, 0, 0, 1, 0, 0)" xlink:href="#linear-gradient-12"/><linearGradient id="linear-gradient-66" x1="1229.01" x2="1331.83" xlink:href="#linear-gradient-2"/><linearGradient id="linear-gradient-67" x1="1241.09" x2="1319.93" xlink:href="#linear-gradient-3"/><linearGradient id="linear-gradient-68" x1="1253.17" x2="1307.85" xlink:href="#linear-gradient-4"/><linearGradient id="linear-gradient-69" x1="1271.89" x2="1289.13" xlink:href="#linear-gradient-5"/><linearGradient id="linear-gradient-70" x1="1198.6" x2="1362.43" xlink:href="#linear-gradient-6"/><linearGradient id="linear-gradient-71" x1="1208.62" y1="712.04" x2="1352.4" y2="712.04" xlink:href="#linear-gradient-6"/><linearGradient id="linear-gradient-72" x1="1220.65" y1="736.51" x2="1340.37" y2="736.51" xlink:href="#linear-gradient-6"/><linearGradient id="linear-gradient-73" x1="1210.04" y1="1381.39" x2="1350.98" y2="1381.39" xlink:href="#linear-gradient-6"/><linearGradient id="linear-gradient-74" x1="1223.79" y1="1362.51" x2="1337.23" y2="1362.51" xlink:href="#linear-gradient-6"/><linearGradient id="linear-gradient-75" x1="1195.16" y1="1400.26" x2="1365.86" y2="1400.26" xlink:href="#linear-gradient-6"/><linearGradient id="linear-gradient-76" x1="171.3" y1="523.89" x2="171.3" y2="548.36" xlink:href="#linear-gradient-12"/><linearGradient id="linear-gradient-77" x1="171.3" y1="570.48" x2="171.3" y2="594.94" gradientTransform="translate(1451.81 1294.75) rotate(-180)" xlink:href="#linear-gradient-12"/><linearGradient id="linear-gradient-78" x1="171.3" y1="617.05" x2="171.3" y2="641.52" gradientTransform="translate(1451.81 1365.8) rotate(-180)" xlink:href="#linear-gradient-12"/><linearGradient id="linear-gradient-79" x1="1280.51" y1="1371.95" x2="1280.51" y2="1390.82" gradientTransform="matrix(1, 0, 0, 1, 0, 0)" xlink:href="#linear-gradient-12"/><linearGradient id="linear-gradient-80" x1="1280.51" y1="1353.07" x2="1280.51" y2="1371.95" gradientTransform="matrix(1, 0, 0, 1, 0, 0)" xlink:href="#linear-gradient-12"/><linearGradient id="linear-gradient-81" x1="1280.51" y1="1390.82" x2="1280.51" y2="1409.7" gradientTransform="matrix(1, 0, 0, 1, 0, 0)" xlink:href="#linear-gradient-12"/><linearGradient id="linear-gradient-82" x1="367.99" y1="667.62" x2="1655.65" y2="667.62" gradientUnits="userSpaceOnUse"><stop offset="0" stop-color="#8f8f8f"/><stop offset=".01" stop-color="#a7a7a7"/><stop offset=".02" stop-color="#bdbdbd"/><stop offset=".04" stop-color="#cecece"/><stop offset=".06" stop-color="#dadada"/><stop offset=".08" stop-color="#e1e1e1"/><stop offset=".16" stop-color="#e3e3e3"/><stop offset=".83" stop-color="#e1e1e1"/><stop offset=".89" stop-color="#dedede"/><stop offset=".92" stop-color="#d6d6d6"/><stop offset=".95" stop-color="#c9c9c9"/><stop offset=".97" stop-color="#b6b6b6"/><stop offset=".99" stop-color="#9d9d9d"/><stop offset="1" stop-color="#8f8f8f"/></linearGradient><linearGradient id="linear-gradient-83" x1="350.44" y1="652.2" x2="1673.21" y2="652.2" xlink:href="#linear-gradient-82"/><linearGradient id="linear-gradient-84" x1="332.88" y1="636.78" x2="1690.76" y2="636.78" xlink:href="#linear-gradient-82"/><linearGradient id="linear-gradient-85" x1="1011.82" y1="675.34" x2="1011.82" y2="659.91" gradientUnits="userSpaceOnUse"><stop offset=".8" stop-color="#fff"/><stop offset=".88" stop-color="#d3d3d3"/><stop offset="1" stop-color="#8f8f8f"/></linearGradient><linearGradient id="linear-gradient-86" y1="659.91" y2="644.49" xlink:href="#linear-gradient-85"/><linearGradient id="linear-gradient-87" x1="1011.82" y1="644.49" x2="1011.82" y2="629.07" xlink:href="#linear-gradient-85"/><linearGradient id="linear-gradient-88" x1="379.9" y1="1440.23" x2="1643.75" y2="1440.23" xlink:href="#linear-gradient-82"/><linearGradient id="linear-gradient-89" x1="323.71" y1="1483" x2="1699.93" y2="1483" gradientUnits="userSpaceOnUse"><stop offset="0" stop-color="#8f8f8f"/><stop offset=".02" stop-color="#b4b4b4"/><stop offset=".05" stop-color="#d6d6d6"/><stop offset=".06" stop-color="#e3e3e3"/><stop offset=".95" stop-color="#e1e1e1"/><stop offset="1" stop-color="#8f8f8f"/></linearGradient><linearGradient id="linear-gradient-90" x1="1144.23" y1="2062.56" x2="1144.23" y2="2038.07" gradientTransform="translate(2156.05 3533.32) rotate(-180)" gradientUnits="userSpaceOnUse"><stop offset=".76" stop-color="#fff"/><stop offset=".86" stop-color="#d3d3d3"/><stop offset="1" stop-color="#8f8f8f"/></linearGradient><linearGradient id="linear-gradient-91" x1="308.23" y1="1507.5" x2="1715.42" y2="1507.5" xlink:href="#linear-gradient-89"/><linearGradient id="linear-gradient-92" x1="1144.23" y1="2038.07" x2="1144.23" y2="2013.57" xlink:href="#linear-gradient-90"/><linearGradient id="linear-gradient-93" x1="323.71" y1="1440.14" x2="379.9" y2="1440.14" gradientUnits="userSpaceOnUse"><stop offset="0" stop-color="#e1e1e1"/><stop offset=".47" stop-color="#dfdfdf"/><stop offset=".64" stop-color="#d8d8d8"/><stop offset=".76" stop-color="#ccc"/><stop offset=".85" stop-color="#bbb"/><stop offset=".94" stop-color="#a5a5a5"/><stop offset="1" stop-color="#8f8f8f"/></linearGradient><linearGradient id="linear-gradient-94" x1="1699.93" x2="1643.75" xlink:href="#linear-gradient-93"/><linearGradient id="linear-gradient-95" x1="351.8" y1="1409.52" x2="351.8" y2="1470.76" gradientTransform="matrix(1, 0, 0, 1, 0, 0)" xlink:href="#linear-gradient-12"/><linearGradient id="linear-gradient-96" x1="1671.84" y1="1409.52" x2="1671.84" y2="1470.76" gradientTransform="matrix(1, 0, 0, 1, 0, 0)" xlink:href="#linear-gradient-12"/><linearGradient id="linear-gradient-97" x1="379.9" y1="1440.23" x2="1643.75" y2="1440.23" xlink:href="#linear-gradient-82"/><linearGradient id="linear-gradient-98" x1="1536.48" y1="1427.17" x2="1536.48" y2="1418.97" gradientUnits="userSpaceOnUse"><stop offset=".68" stop-color="#bfbfbf"/><stop offset=".69" stop-color="#b4b4b4"/><stop offset=".73" stop-color="#a3a3a3"/><stop offset=".77" stop-color="#979797"/><stop offset=".83" stop-color="#909090"/><stop offset="1" stop-color="#8f8f8f"/></linearGradient><linearGradient id="linear-gradient-99" y1="1444.24" y2="1436.03" xlink:href="#linear-gradient-98"/><linearGradient id="linear-gradient-100" x1="485.86" y1="1427.2" x2="485.86" y2="1419.05" xlink:href="#linear-gradient-98"/><linearGradient id="linear-gradient-101" x1="485.86" y1="1444.26" x2="485.86" y2="1436.12" xlink:href="#linear-gradient-98"/><linearGradient id="linear-gradient-102" x1="485.86" y1="1461.33" x2="485.86" y2="1453.18" xlink:href="#linear-gradient-98"/><linearGradient id="linear-gradient-103" x1="743.14" y1="1427.2" x2="743.14" y2="1419.05" xlink:href="#linear-gradient-98"/><linearGradient id="linear-gradient-104" x1="743.14" y1="1444.26" x2="743.14" y2="1436.12" xlink:href="#linear-gradient-98"/><linearGradient id="linear-gradient-105" x1="743.14" y1="1461.33" x2="743.14" y2="1453.18" xlink:href="#linear-gradient-98"/><linearGradient id="linear-gradient-106" x1="1011.82" y1="1427.2" x2="1011.82" y2="1419.05" xlink:href="#linear-gradient-98"/><linearGradient id="linear-gradient-107" x1="1011.82" y1="1444.26" x2="1011.82" y2="1436.12" xlink:href="#linear-gradient-98"/><linearGradient id="linear-gradient-108" x1="1011.82" y1="1461.33" x2="1011.82" y2="1453.18" xlink:href="#linear-gradient-98"/><linearGradient id="linear-gradient-109" x1="1280.51" y1="1427.2" x2="1280.51" y2="1419.05" xlink:href="#linear-gradient-98"/><linearGradient id="linear-gradient-110" x1="1280.51" y1="1444.26" x2="1280.51" y2="1436.12" xlink:href="#linear-gradient-98"/><linearGradient id="linear-gradient-111" x1="1280.51" y1="1461.33" x2="1280.51" y2="1453.18" xlink:href="#linear-gradient-98"/><linearGradient id="linear-gradient-112" y1="1461.3" y2="1453.1" xlink:href="#linear-gradient-98"/><linearGradient id="linear-gradient-113" x1="1013.03" y1="397.72" x2="1013.03" y2="583.87" gradientUnits="userSpaceOnUse"><stop offset="0" stop-color="#8f8f8f"/><stop offset=".05" stop-color="#a9a9a9"/><stop offset=".12" stop-color="#c3c3c3"/><stop offset=".19" stop-color="#d9d9d9"/><stop offset=".27" stop-color="#eaeaea"/><stop offset=".38" stop-color="#f6f6f6"/><stop offset=".53" stop-color="#fdfdfd"/><stop offset=".93" stop-color="#fff"/><stop offset=".96" stop-color="#d3d3d3"/><stop offset="1" stop-color="#8f8f8f"/></linearGradient><radialGradient id="radial-gradient" cx="1010.06" cy="614.34" fx="1010.06" fy="614.34" r="58.92" gradientTransform="translate(8.02 -179.07) scale(.99 1.12)" gradientUnits="userSpaceOnUse"><stop offset=".91" stop-color="#dcdcdc"/><stop offset="1" stop-color="#fff"/></radialGradient><radialGradient id="radial-gradient-2" cx="1010.05" cy="614.34" fx="1010.05" fy="614.34" r="51.8" gradientTransform="translate(8.02 -179.07) scale(.99 1.12)" gradientUnits="userSpaceOnUse"><stop offset=".6" stop-color="#dddcd6"/><stop offset=".91" stop-color="#eeebeb"/><stop offset=".92" stop-color="#e8e6e6"/><stop offset=".94" stop-color="#d5d4d4"/><stop offset=".97" stop-color="#cacaca"/><stop offset="1" stop-color="#c7c7c7"/></radialGradient><linearGradient id="linear-gradient-114" x1="1013.03" y1="461.89" x2="1013.03" y2="548.15" gradientUnits="userSpaceOnUse"><stop offset="0" stop-color="#d9d8d8"/><stop offset=".05" stop-color="#cac9c9"/><stop offset=".13" stop-color="#b4b3b3"/><stop offset=".23" stop-color="#a3a3a3"/><stop offset=".35" stop-color="#979797"/><stop offset=".53" stop-color="#909090"/><stop offset="1" stop-color="#8f8f8f"/></linearGradient></defs><g class="cls-55"><g id="Layer_2"><rect class="cls-76" width="2000" height="2000"/></g><g id="Layer_1"><g><polygon class="cls-61" points="1013.03 629.15 1699.73 629.15 1699.73 568.54 1013.03 357.77 326.33 568.54 326.33 629.15 1013.03 629.15"/><g><rect class="cls-40" x="422.94" y="675.34" width="103.01" height="734.37"/><rect class="cls-108" x="435.02" y="675.34" width="78.85" height="734.37"/><rect class="cls-115" x="447.11" y="675.34" width="54.68" height="734.37"/><rect class="cls-88" x="465.83" y="675.34" width="17.23" height="734.37"/><rect class="cls-53" x="392.53" y="675.34" width="163.83" height="24.47"/><rect class="cls-97" x="402.56" y="699.8" width="143.78" height="24.47"/><rect class="cls-116" x="414.59" y="724.27" width="119.71" height="24.47"/><rect class="cls-103" x="403.98" y="1371.95" width="140.94" height="18.88"/><rect class="cls-72" x="417.73" y="1353.07" width="113.44" height="18.87"/><rect class="cls-65" x="389.1" y="1390.82" width="170.71" height="18.88"/><rect class="cls-28" x="392.53" y="675.34" width="163.83" height="24.47"/><rect class="cls-6" x="402.56" y="699.81" width="143.78" height="24.47"/><rect class="cls-38" x="414.59" y="724.27" width="119.71" height="24.47"/><rect class="cls-24" x="403.98" y="1371.95" width="140.94" height="18.88"/><rect class="cls-8" x="417.73" y="1353.07" width="113.44" height="18.87"/><rect class="cls-12" x="389.1" y="1390.82" width="170.71" height="18.88"/></g><g><rect class="cls-47" x="1497.69" y="675.34" width="103.01" height="734.37"/><rect class="cls-113" x="1509.77" y="675.34" width="78.85" height="734.37"/><rect class="cls-52" x="1521.86" y="675.34" width="54.68" height="734.37"/><rect class="cls-84" x="1540.58" y="675.34" width="17.23" height="734.37"/><rect class="cls-104" x="1467.28" y="675.34" width="163.83" height="24.47"/><rect class="cls-112" x="1477.31" y="699.8" width="143.78" height="24.47"/><rect class="cls-99" x="1489.34" y="724.27" width="119.71" height="24.47"/><rect class="cls-86" x="1478.73" y="1371.95" width="140.94" height="18.88"/><rect class="cls-118" x="1492.48" y="1353.07" width="113.44" height="18.87"/><rect class="cls-109" x="1463.85" y="1390.82" width="170.71" height="18.88"/><rect class="cls-16" x="1467.28" y="675.34" width="163.83" height="24.47"/><rect class="cls-3" x="1477.31" y="699.81" width="143.78" height="24.47"/><rect class="cls-21" x="1489.34" y="724.27" width="119.71" height="24.47"/><rect class="cls-2" x="1478.73" y="1371.95" width="140.94" height="18.88"/><rect class="cls-19" x="1492.48" y="1353.07" width="113.44" height="18.87"/><rect class="cls-18" x="1463.85" y="1390.82" width="170.71" height="18.88"/></g><g><rect class="cls-93" x="691.63" y="675.34" width="103.01" height="734.37"/><rect class="cls-63" x="703.71" y="675.34" width="78.85" height="734.37"/><rect class="cls-51" x="715.79" y="675.34" width="54.68" height="734.37"/><rect class="cls-75" x="734.52" y="675.34" width="17.23" height="734.37"/><rect class="cls-110" x="661.22" y="675.34" width="163.83" height="24.47"/><rect class="cls-70" x="671.25" y="699.8" width="143.78" height="24.47"/><rect class="cls-49" x="683.28" y="724.27" width="119.71" height="24.47"/><rect class="cls-82" x="672.67" y="1371.95" width="140.94" height="18.88"/><rect class="cls-106" x="686.42" y="1353.07" width="113.44" height="18.87"/><rect class="cls-44" x="657.78" y="1390.82" width="170.71" height="18.88"/><rect class="cls-29" x="661.22" y="675.34" width="163.83" height="24.47"/><rect class="cls-35" x="671.25" y="699.81" width="143.78" height="24.47"/><rect class="cls-31" x="683.28" y="724.27" width="119.71" height="24.47"/><rect class="cls-32" x="672.67" y="1371.95" width="140.94" height="18.88"/><rect class="cls-26" x="686.42" y="1353.07" width="113.44" height="18.87"/><rect class="cls-25" x="657.78" y="1390.82" width="170.71" height="18.88"/></g><g><rect class="cls-66" x="960.32" y="675.34" width="103.01" height="734.37"/><rect class="cls-41" x="972.4" y="675.34" width="78.85" height="734.37"/><rect class="cls-50" x="984.48" y="675.34" width="54.68" height="734.37"/><rect class="cls-54" x="1003.21" y="675.34" width="17.23" height="734.37"/><rect class="cls-90" x="929.91" y="675.34" width="163.83" height="24.47"/><rect class="cls-91" x="939.93" y="699.8" width="143.78" height="24.47"/><rect class="cls-48" x="951.97" y="724.27" width="119.71" height="24.47"/><rect class="cls-117" x="941.35" y="1371.95" width="140.94" height="18.88"/><rect class="cls-45" x="955.1" y="1353.07" width="113.44" height="18.87"/><rect class="cls-73" x="926.47" y="1390.82" width="170.7" height="18.88"/><rect class="cls-5" x="929.91" y="675.34" width="163.83" height="24.47"/><rect class="cls-34" x="939.93" y="699.81" width="143.78" height="24.47"/><rect class="cls-36" x="951.97" y="724.27" width="119.71" height="24.47"/><rect class="cls-27" x="941.35" y="1371.95" width="140.94" height="18.88"/><rect class="cls-9" x="955.1" y="1353.07" width="113.44" height="18.87"/><rect class="cls-4" x="926.47" y="1390.82" width="170.7" height="18.88"/></g><g><rect class="cls-98" x="1229.01" y="675.34" width="103.01" height="734.37"/><rect class="cls-69" x="1241.09" y="675.34" width="78.85" height="734.37"/><rect class="cls-79" x="1253.17" y="675.34" width="54.68" height="734.37"/><rect class="cls-46" x="1271.89" y="675.34" width="17.23" height="734.37"/><rect class="cls-94" x="1198.6" y="675.34" width="163.83" height="24.47"/><rect class="cls-114" x="1208.62" y="699.8" width="143.78" height="24.47"/><rect class="cls-85" x="1220.65" y="724.27" width="119.71" height="24.47"/><rect class="cls-100" x="1210.04" y="1371.95" width="140.94" height="18.88"/><rect class="cls-105" x="1223.79" y="1353.07" width="113.44" height="18.87"/><rect class="cls-1" x="1195.16" y="1390.82" width="170.7" height="18.88"/><rect class="cls-39" x="1198.6" y="675.34" width="163.83" height="24.47"/><rect class="cls-10" x="1208.62" y="699.81" width="143.78" height="24.47"/><rect class="cls-17" x="1220.65" y="724.27" width="119.71" height="24.47"/><rect class="cls-30" x="1210.04" y="1371.95" width="140.94" height="18.88"/><rect class="cls-11" x="1223.79" y="1353.07" width="113.44" height="18.87"/><rect class="cls-14" x="1195.16" y="1390.82" width="170.7" height="18.88"/></g><rect class="cls-60" x="367.99" y="659.91" width="1287.66" height="15.42"/><rect class="cls-58" x="350.44" y="644.49" width="1322.77" height="15.42"/><rect class="cls-59" x="332.88" y="629.07" width="1357.88" height="15.42"/><rect class="cls-23" x="367.99" y="659.91" width="1287.66" height="15.42"/><rect class="cls-20" x="350.44" y="644.49" width="1322.77" height="15.42"/><rect class="cls-22" x="332.88" y="629.07" width="1357.88" height="15.42"/><polygon class="cls-95" points="1643.75 1470.76 1643.75 1409.7 1429.41 1409.7 1429.41 1418.43 594.23 1418.43 594.23 1409.7 379.9 1409.7 379.9 1470.76 1643.75 1470.76"/><rect class="cls-87" x="323.71" y="1470.76" width="1376.22" height="24.49"/><rect class="cls-37" x="323.71" y="1470.76" width="1376.22" height="24.49"/><rect class="cls-56" x="308.23" y="1495.25" width="1407.19" height="24.49"/><rect class="cls-33" x="308.23" y="1495.25" width="1407.19" height="24.49"/><path class="cls-42" d="M323.71,1462.5v8.26h56.19v-61.24h-10.57c0,29.26-20.42,52.98-45.62,52.98Z"/><path class="cls-111" d="M1699.93,1462.5v8.26h-56.19v-61.24h10.57c0,29.26,20.42,52.98,45.61,52.98Z"/><path class="cls-7" d="M323.71,1462.5v8.26h56.19v-61.24h-10.57c0,29.26-20.42,52.98-45.62,52.98Z"/><path class="cls-13" d="M1699.93,1462.5v8.26h-56.19v-61.24h10.57c0,29.26,20.42,52.98,45.61,52.98Z"/><polygon class="cls-64" points="1429.41 1409.7 1429.41 1418.43 1379.02 1418.43 1379.02 1409.7 1182 1409.7 1182 1418.43 1110.33 1418.43 1110.33 1409.7 913.31 1409.7 913.31 1418.43 841.65 1418.43 841.65 1409.7 644.63 1409.7 644.63 1418.43 594.23 1418.43 594.23 1409.7 379.9 1409.7 379.9 1470.76 1643.75 1470.76 1643.75 1409.7 1429.41 1409.7"/><rect class="cls-83" x="1458.51" y="1418.97" width="155.94" height="8.2"/><rect class="cls-107" x="1458.51" y="1436.03" width="155.94" height="8.2"/><g><rect class="cls-101" x="406.59" y="1418.97" width="158.54" height="8.2"/><rect class="cls-119" x="406.59" y="1436.04" width="158.54" height="8.2"/><rect class="cls-89" x="406.59" y="1453.1" width="158.54" height="8.2"/></g><g><rect class="cls-80" x="663.86" y="1418.97" width="158.54" height="8.2"/><rect class="cls-62" x="663.86" y="1436.04" width="158.54" height="8.2"/><rect class="cls-102" x="663.86" y="1453.1" width="158.54" height="8.2"/></g><g><rect class="cls-67" x="932.55" y="1418.97" width="158.54" height="8.2"/><rect class="cls-81" x="932.55" y="1436.04" width="158.54" height="8.2"/><rect class="cls-57" x="932.55" y="1453.1" width="158.54" height="8.2"/></g><g><rect class="cls-43" x="1201.24" y="1418.97" width="158.54" height="8.2"/><rect class="cls-71" x="1201.24" y="1436.04" width="158.54" height="8.2"/><rect class="cls-68" x="1201.24" y="1453.1" width="158.54" height="8.2"/></g><rect class="cls-77" x="1458.51" y="1453.1" width="155.94" height="8.2"/><polygon class="cls-15" points="1013.03 586.44 1621.05 586.44 1013.03 402.04 405.01 586.44 1013.03 586.44"/><path class="cls-96" d="M1013.03,402.04l608.02,184.4H405.01l608.02-184.4m0-5.18l-1.16,.35-608.02,184.4,1.16,9.83H1621.05l1.16-9.83-608.02-184.4-1.16-.35h0Z"/><g><polygon class="cls-96" points="1015.59 533.81 1013.93 586.44 1017.24 586.44 1015.59 533.81"/><polygon class="cls-96" points="1025.71 586.44 1029.16 586.44 1015.59 533.81 1025.71 586.44"/><polygon class="cls-96" points="1038.43 586.44 1042.38 586.44 1015.59 533.81 1038.43 586.44"/><polygon class="cls-96" points="1053.58 586.44 1058.63 586.44 1015.59 533.81 1053.58 586.44"/><polygon class="cls-96" points="1073.86 586.44 1081.25 586.44 1015.59 533.81 1073.86 586.44"/><polygon class="cls-96" points="1105.76 586.44 1119.01 586.44 1015.59 533.81 1105.76 586.44"/><polygon class="cls-96" points="1171.13 586.44 1206.01 586.44 1015.59 533.81 1171.13 586.44"/><polygon class="cls-96" points="1427.51 586.44 1621.05 586.44 1579.73 573.91 1015.59 533.81 1427.51 586.44"/><polygon class="cls-96" points="1365.52 508.94 1319.5 494.99 1015.59 533.81 1365.52 508.94"/><polygon class="cls-96" points="1241.58 471.36 1219.75 464.74 1015.59 533.81 1241.58 471.36"/><polygon class="cls-96" points="1176.88 451.74 1163.28 447.61 1015.59 533.81 1176.88 451.74"/><polygon class="cls-96" points="1134.16 438.78 1124.18 435.75 1015.59 533.81 1134.16 438.78"/><polygon class="cls-96" points="1101.43 428.85 1093.16 426.35 1015.59 533.81 1101.43 428.85"/><polygon class="cls-96" points="1073.37 420.34 1065.83 418.06 1015.59 533.81 1073.37 420.34"/><polygon class="cls-96" points="1046.92 412.32 1039.39 410.04 1015.59 533.81 1046.92 412.32"/><polygon class="cls-96" points="1019.66 404.05 1013.03 402.04 1011.47 402.52 1015.59 533.81 1019.66 404.05"/><polygon class="cls-96" points="991.5 408.57 983.88 410.88 1015.59 533.81 991.5 408.57"/><polygon class="cls-96" points="964.75 416.68 957.12 419 1015.59 533.81 964.75 416.68"/><polygon class="cls-96" points="937.09 425.07 928.73 427.61 1015.59 533.81 937.09 425.07"/><polygon class="cls-96" points="905.71 434.59 895.61 437.65 1015.59 533.81 905.71 434.59"/><polygon class="cls-96" points="866.14 446.59 852.38 450.76 1015.59 533.81 866.14 446.59"/><polygon class="cls-96" points="809.01 463.92 786.91 470.62 1015.59 533.81 809.01 463.92"/><polygon class="cls-96" points="708.08 494.53 661.51 508.65 1015.59 533.81 708.08 494.53"/><polygon class="cls-96" points="444.77 574.38 405.01 586.44 603.65 586.44 1015.59 533.81 444.77 574.38"/><polygon class="cls-96" points="825.15 586.44 860.04 586.44 1015.59 533.81 825.15 586.44"/><polygon class="cls-96" points="912.16 586.44 925.41 586.44 1015.59 533.81 912.16 586.44"/><polygon class="cls-96" points="949.92 586.44 957.31 586.44 1015.59 533.81 949.92 586.44"/><polygon class="cls-96" points="972.54 586.44 977.6 586.44 1015.59 533.81 972.54 586.44"/><polygon class="cls-96" points="988.79 586.44 992.74 586.44 1015.59 533.81 988.79 586.44"/><polygon class="cls-96" points="1002.01 586.44 1005.46 586.44 1015.59 533.81 1002.01 586.44"/></g><g><path class="cls-74" d="M1071.65,507.66c0,36.37-26.25,65.86-58.62,65.86s-58.62-29.48-58.62-65.86,26.25-65.86,58.62-65.86,58.62,29.48,58.62,65.86Z"/><path class="cls-92" d="M1064.57,507.66c0,31.98-23.08,57.91-51.54,57.91s-51.54-25.92-51.54-57.91,23.08-57.91,51.54-57.91,51.54,25.93,51.54,57.91Z"/><path class="cls-78" d="M1034.44,500.21c1.98-13.6-6.72-29.53-6.72-29.53,0,0-3.36,6.03-6.66,12.09-5.65,15.78-6.31,35.05-6.38,48.45,1.32-3.59,3.11-6.53,5.2-9.39,4.11-5.69,9.28-11.2,14.56-21.61Zm-5.65,29.4c2.16,0,4.38,.37,6.56,1.09,.34-.83,.67-1.69,.97-2.59,2.3-6.77,3.56-15.28,5.55-21.83,.54-1.73,1.12-3.36,1.81-4.78-3.76,.85-7.35,2.9-9.85,4.61-4.53,7.81-8.88,12.63-12.23,17.27-2.69,3.75-4.77,7.33-5.96,12.43,.01,.03,.02,.05,.03,.08,.72-.97,1.53-1.84,2.42-2.58,2.99-2.5,6.77-3.7,10.71-3.7Zm3.21,6.8c.85-.96,1.61-2.14,2.31-3.47-1.84-.56-3.7-.85-5.52-.85-3.54,0-6.85,1.08-9.38,3.21-.7,.59-1.35,1.27-1.93,2.03,3.09,1.58,5.66,2.26,7.78,2.26,2.87-.01,4.96-1.16,6.75-3.17Zm-25.36-1.12c-2.53-2.12-5.85-3.21-9.38-3.2-1.82,0-3.68,.29-5.52,.85,.21,.41,.43,.8,.65,1.18,2.08,3.42,4.59,5.44,8.4,5.46,2.12,0,4.69-.67,7.78-2.26-.58-.76-1.23-1.43-1.93-2.03Zm-14.41-29.19c-2.51-1.71-6.09-3.76-9.86-4.61,.26,.53,.51,1.09,.74,1.67,1.17,2.92,2.04,6.45,2.89,10.17,1.34,5.95,2.65,12.39,4.71,17.35,2.17-.72,4.39-1.09,6.56-1.09,3.93,0,7.72,1.2,10.71,3.7,.89,.74,1.7,1.61,2.43,2.58,0-.02,.02-.05,.03-.07-1.2-5.1-3.27-8.68-5.96-12.43-3.35-4.64-7.7-9.46-12.23-17.27Zm59.76-3.85c-1.74-.89-3.6-1.21-5.47-1.13-.56,.84-1.08,1.86-1.56,3.07-1.06,2.66-1.92,6.09-2.76,9.77-1.33,5.81-2.59,12.25-4.75,17.54,2.98,1.33,5.79,3.36,8.16,6.05,1.91-4.41,2.61-9.19,1.91-12.34-1.91-8.61-3.83-15.07,4.47-22.96Zm-15.55,31.48c-.3,.61-.62,1.21-.95,1.77-2.27,3.84-5.6,6.56-10.17,6.56h-.06c-2.09,0-4.4-.55-7-1.68,1.78,2.4,4.19,4.6,7.55,6.36,8.58,4.5,15.06-.33,18.69-6.91-2.29-2.77-5.09-4.81-8.05-6.1Zm-35.68,8.33c-3.42,0-6.18-1.51-8.27-3.9-1.12-1.27-2.06-2.77-2.88-4.42-2.96,1.29-5.75,3.33-8.04,6.1,3.63,6.58,10.11,11.41,18.69,6.91,3.36-1.76,5.77-3.96,7.55-6.36-2.59,1.13-4.91,1.68-7,1.68h-.05Zm12.27-87.18s-7.57,11.71-6.01,26.87c3.68,10.26,5.29,21.76,6.01,32.25,.71-10.48,2.33-21.99,6-32.24,1.57-15.17-6-26.88-6-26.88Zm-25.36,74.11c-2.4-7.1-3.66-15.66-5.57-21.91-.74-2.46-1.59-4.51-2.56-5.97-1.87-.07-3.74,.24-5.48,1.13,8.3,7.89,6.39,14.35,4.47,22.96-.7,3.15,0,7.93,1.92,12.34,2.37-2.69,5.18-4.72,8.16-6.05-.33-.82-.64-1.66-.93-2.51Zm10.66-58.32s-8.69,15.93-6.72,29.53c5.28,10.41,10.45,15.92,14.56,21.61,2.08,2.86,3.88,5.81,5.2,9.4-.07-13.4-.72-32.66-6.37-48.44-3.31-6.06-6.67-12.1-6.67-12.1Z"/></g></g></g></g></svg>